<svg width="13" height="11" viewBox="0 0 13 11" fill="none" xmlns="http://www.w3.org/2000/svg">
<path d="M12.1875 1.02907L8.93466 1.02908V0.343831C8.93466 0.153864 8.75286 0 8.52841 0C8.30395 0 8.12216 0.153864 8.12216 0.343831V1.02891H4.87216V0.343831C4.87216 0.153864 4.69036 0 4.46591 0C4.24145 0 4.05966 0.153864 4.05966 0.343831V1.02891H0.8125C0.363797 1.02891 0 1.33681 0 1.71657V10.3123C0 10.6921 0.363797 11 0.8125 11H12.1875C12.6362 11 13 10.6921 13 10.3123V1.71657C13 1.33697 12.6362 1.02907 12.1875 1.02907ZM12.1875 10.3123H0.8125V1.71657H4.05966V2.06298C4.05966 2.25294 4.24145 2.40681 4.46591 2.40681C4.69036 2.40681 4.87216 2.25294 4.87216 2.06298V1.71675H8.12216V2.06316C8.12216 2.25312 8.30395 2.40699 8.52841 2.40699C8.75286 2.40699 8.93466 2.25312 8.93466 2.06316V1.71675H12.1875V10.3123ZM9.34375 5.49887H10.1562C10.3805 5.49887 10.5625 5.34484 10.5625 5.15504V4.46738C10.5625 4.27759 10.3805 4.12355 10.1562 4.12355H9.34375C9.1195 4.12355 8.9375 4.27759 8.9375 4.46738V5.15504C8.9375 5.34484 9.1195 5.49887 9.34375 5.49887ZM9.34375 8.24934H10.1562C10.3805 8.24934 10.5625 8.09548 10.5625 7.90551V7.21785C10.5625 7.02806 10.3805 6.87402 10.1562 6.87402H9.34375C9.1195 6.87402 8.9375 7.02806 8.9375 7.21785V7.90551C8.9375 8.09565 9.1195 8.24934 9.34375 8.24934ZM6.90625 6.87402H6.09375C5.8695 6.87402 5.6875 7.02806 5.6875 7.21785V7.90551C5.6875 8.09548 5.8695 8.24934 6.09375 8.24934H6.90625C7.1305 8.24934 7.3125 8.09548 7.3125 7.90551V7.21785C7.3125 7.02823 7.1305 6.87402 6.90625 6.87402ZM6.90625 4.12355H6.09375C5.8695 4.12355 5.6875 4.27759 5.6875 4.46738V5.15504C5.6875 5.34484 5.8695 5.49887 6.09375 5.49887H6.90625C7.1305 5.49887 7.3125 5.34484 7.3125 5.15504V4.46738C7.3125 4.27741 7.1305 4.12355 6.90625 4.12355ZM3.65625 4.12355H2.84375C2.6195 4.12355 2.4375 4.27759 2.4375 4.46738V5.15504C2.4375 5.34484 2.6195 5.49887 2.84375 5.49887H3.65625C3.8805 5.49887 4.0625 5.34484 4.0625 5.15504V4.46738C4.0625 4.27741 3.8805 4.12355 3.65625 4.12355ZM3.65625 6.87402H2.84375C2.6195 6.87402 2.4375 7.02806 2.4375 7.21785V7.90551C2.4375 8.09548 2.6195 8.24934 2.84375 8.24934H3.65625C3.8805 8.24934 4.0625 8.09548 4.0625 7.90551V7.21785C4.0625 7.02823 3.8805 6.87402 3.65625 6.87402Z" fill="#1F1E17"/>
</svg>
