<svg width="15" height="15" viewBox="0 0 15 15" fill="none" xmlns="http://www.w3.org/2000/svg">
<path d="M7.5 8.4375C7.03645 8.4375 6.58331 8.30004 6.19788 8.04251C5.81246 7.78497 5.51205 7.41893 5.33466 6.99067C5.15727 6.5624 5.11085 6.09115 5.20129 5.63651C5.29172 5.18187 5.51494 4.76425 5.84272 4.43647C6.1705 4.10869 6.58812 3.88547 7.04276 3.79504C7.4974 3.7046 7.96865 3.75102 8.39692 3.92841C8.82518 4.1058 9.19122 4.40621 9.44876 4.79163C9.70629 5.17706 9.84375 5.6302 9.84375 6.09375C9.84301 6.71512 9.59584 7.31083 9.15646 7.75021C8.71708 8.18959 8.12137 8.43676 7.5 8.4375ZM7.5 4.6875C7.22187 4.6875 6.94999 4.76998 6.71873 4.9245C6.48747 5.07902 6.30723 5.29864 6.2008 5.5556C6.09436 5.81256 6.06651 6.09531 6.12077 6.3681C6.17503 6.64088 6.30896 6.89145 6.50563 7.08812C6.7023 7.28479 6.95287 7.41872 7.22566 7.47298C7.49844 7.52724 7.78119 7.49939 8.03815 7.39296C8.29511 7.28652 8.51473 7.10628 8.66926 6.87502C8.82378 6.64377 8.90625 6.37188 8.90625 6.09375C8.90588 5.7209 8.7576 5.36344 8.49396 5.09979C8.23032 4.83615 7.87285 4.68787 7.5 4.6875Z" fill="#1F1E17"/>
<path d="M7.5 14.0625L3.54563 9.39891C3.49068 9.32888 3.4363 9.25841 3.3825 9.1875C2.70737 8.29753 2.3425 7.21082 2.34375 6.09375C2.34375 4.72623 2.887 3.41472 3.85398 2.44773C4.82097 1.48075 6.13248 0.9375 7.5 0.9375C8.86753 0.9375 10.179 1.48075 11.146 2.44773C12.113 3.41472 12.6563 4.72623 12.6563 6.09375C12.6573 7.21029 12.2927 8.29645 11.618 9.18609L11.6175 9.1875C11.6175 9.1875 11.4769 9.37219 11.4558 9.39703L7.5 14.0625ZM4.1311 8.62266C4.1311 8.62266 4.24032 8.76703 4.26516 8.79797L7.5 12.6131L10.7391 8.79281C10.7597 8.76703 10.8694 8.62172 10.8698 8.62125C11.4217 7.89429 11.7199 7.00643 11.7188 6.09375C11.7188 4.97487 11.2743 3.90181 10.4831 3.11064C9.69194 2.31947 8.61888 1.875 7.5 1.875C6.38112 1.875 5.30807 2.31947 4.5169 3.11064C3.72573 3.90181 3.28125 4.97487 3.28125 6.09375C3.2801 7.00702 3.57865 7.89543 4.1311 8.62266Z" fill="#1F1E17"/>
</svg>
