<svg width="75" height="75" viewBox="0 0 75 75" fill="none" xmlns="http://www.w3.org/2000/svg">
<circle cx="37.5" cy="37.5" r="37.5" fill="white"/>
<g clip-path="url(#clip0_6977_163)">
<path d="M37 23C32.9294 23 32.4175 23.0188 30.8181 23.09C29.2188 23.165 28.1294 23.4162 27.175 23.7875C26.1735 24.1631 25.2665 24.7539 24.5181 25.5181C23.7539 26.2665 23.1631 27.1735 22.7875 28.175C22.4162 29.1275 22.1631 30.2187 22.09 31.8125C22.0188 33.4156 22 33.9256 22 38.0019C22 42.0744 22.0188 42.5844 22.09 44.1838C22.165 45.7812 22.4162 46.8706 22.7875 47.825C23.1719 48.8112 23.6838 49.6475 24.5181 50.4819C25.3506 51.3162 26.1869 51.83 27.1731 52.2125C28.1294 52.5837 29.2169 52.8369 30.8144 52.91C32.4156 52.9812 32.9256 53 37 53C41.0744 53 41.5825 52.9812 43.1838 52.91C44.7794 52.835 45.8725 52.5837 46.8269 52.2125C47.8277 51.8366 48.734 51.2459 49.4819 50.4819C50.3162 49.6475 50.8281 48.8112 51.2125 47.825C51.5819 46.8706 51.835 45.7812 51.91 44.1838C51.9812 42.5844 52 42.0744 52 38C52 33.9256 51.9812 33.4156 51.91 31.8144C51.835 30.2188 51.5819 29.1275 51.2125 28.175C50.8369 27.1735 50.2461 26.2665 49.4819 25.5181C48.7335 24.7539 47.8265 24.1631 46.825 23.7875C45.8687 23.4162 44.7775 23.1631 43.1819 23.09C41.5806 23.0188 41.0725 23 36.9963 23H37ZM35.6556 25.7038H37.0019C41.0069 25.7038 41.4812 25.7169 43.0619 25.79C44.5244 25.8556 45.3194 26.1012 45.8481 26.3056C46.5475 26.5775 47.0481 26.9037 47.5731 27.4288C48.0981 27.9538 48.4225 28.4525 48.6944 29.1537C48.9006 29.6806 49.1444 30.4756 49.21 31.9381C49.2831 33.5188 49.2981 33.9931 49.2981 37.9963C49.2981 41.9994 49.2831 42.4756 49.21 44.0562C49.1444 45.5187 48.8988 46.3119 48.6944 46.8406C48.4522 47.4911 48.0686 48.0796 47.5712 48.5637C47.0462 49.0887 46.5475 49.4131 45.8463 49.685C45.3213 49.8913 44.5262 50.135 43.0619 50.2025C41.4812 50.2738 41.0069 50.2906 37.0019 50.2906C32.9969 50.2906 32.5206 50.2738 30.94 50.2025C29.4775 50.135 28.6844 49.8913 28.1556 49.685C27.5047 49.4436 26.9155 49.0606 26.4306 48.5637C25.9324 48.0793 25.5481 47.49 25.3056 46.8387C25.1012 46.3119 24.8556 45.5169 24.79 44.0544C24.7188 42.4738 24.7038 41.9994 24.7038 37.9925C24.7038 33.9856 24.7188 33.515 24.79 31.9344C24.8575 30.4719 25.1013 29.6769 25.3075 29.1481C25.5794 28.4488 25.9056 27.9481 26.4306 27.4231C26.9556 26.8981 27.4544 26.5738 28.1556 26.3019C28.6844 26.0956 29.4775 25.8519 30.94 25.7844C32.3238 25.7206 32.86 25.7019 35.6556 25.7V25.7038ZM45.0081 28.1937C44.7717 28.1937 44.5377 28.2403 44.3193 28.3308C44.1009 28.4212 43.9025 28.5538 43.7353 28.721C43.5682 28.8881 43.4356 29.0865 43.3451 29.3049C43.2547 29.5233 43.2081 29.7574 43.2081 29.9938C43.2081 30.2301 43.2547 30.4642 43.3451 30.6826C43.4356 30.901 43.5682 31.0994 43.7353 31.2665C43.9025 31.4337 44.1009 31.5663 44.3193 31.6567C44.5377 31.7472 44.7717 31.7937 45.0081 31.7937C45.4855 31.7937 45.9434 31.6041 46.2809 31.2665C46.6185 30.929 46.8081 30.4711 46.8081 29.9938C46.8081 29.5164 46.6185 29.0585 46.2809 28.721C45.9434 28.3834 45.4855 28.1937 45.0081 28.1937ZM37.0019 30.2975C35.9801 30.2816 34.9654 30.469 34.0168 30.849C33.0682 31.229 32.2047 31.7939 31.4765 32.5108C30.7483 33.2277 30.1701 34.0823 29.7753 35.0249C29.3806 35.9674 29.1773 36.9791 29.1773 38.0009C29.1773 39.0228 29.3806 40.0345 29.7753 40.977C30.1701 41.9196 30.7483 42.7742 31.4765 43.4911C32.2047 44.208 33.0682 44.7729 34.0168 45.1529C34.9654 45.5328 35.9801 45.7203 37.0019 45.7044C39.0241 45.6728 40.9529 44.8473 42.3718 43.4061C43.7908 41.9649 44.5861 40.0234 44.5861 38.0009C44.5861 35.9784 43.7908 34.037 42.3718 32.5958C40.9529 31.1545 39.0241 30.3291 37.0019 30.2975ZM37.0019 32.9994C37.6586 32.9994 38.3088 33.1287 38.9155 33.38C39.5222 33.6313 40.0735 33.9997 40.5379 34.464C41.0022 34.9284 41.3705 35.4796 41.6219 36.0863C41.8732 36.693 42.0025 37.3433 42.0025 38C42.0025 38.6567 41.8732 39.307 41.6219 39.9137C41.3705 40.5204 41.0022 41.0716 40.5379 41.536C40.0735 42.0003 39.5222 42.3687 38.9155 42.62C38.3088 42.8713 37.6586 43.0006 37.0019 43.0006C35.6756 43.0006 34.4037 42.4738 33.4659 41.536C32.5281 40.5982 32.0013 39.3262 32.0013 38C32.0013 36.6738 32.5281 35.4018 33.4659 34.464C34.4037 33.5262 35.6756 32.9994 37.0019 32.9994Z" fill="#0F4FA1"/>
</g>
<defs>
<clipPath id="clip0_6977_163">
<rect width="30" height="30" fill="white" transform="translate(22 23)"/>
</clipPath>
</defs>
</svg>
