<svg width="75" height="75" viewBox="0 0 75 75" fill="none" xmlns="http://www.w3.org/2000/svg">
<circle cx="37.5" cy="37.5" r="37.5" fill="white"/>
<path d="M30.1208 28.2921C30.1205 29.0657 29.8128 29.8074 29.2655 30.3541C28.7183 30.9008 27.9763 31.2077 27.2027 31.2074C26.4292 31.207 25.6875 30.8993 25.1407 30.3521C24.594 29.8048 24.2871 29.0628 24.2875 28.2892C24.2879 27.5157 24.5956 26.774 25.1428 26.2273C25.6901 25.6806 26.4321 25.3736 27.2056 25.374C27.9792 25.3744 28.7209 25.6821 29.2676 26.2293C29.8143 26.7766 30.1212 27.5186 30.1208 28.2921ZM30.2083 33.3671H24.375V51.6255H30.2083V33.3671ZM39.425 33.3671H33.6208V51.6255H39.3667V42.0442C39.3667 36.7067 46.3229 36.2109 46.3229 42.0442V51.6255H52.0833V40.0609C52.0833 31.063 41.7875 31.3984 39.3667 35.8171L39.425 33.3671Z" fill="#0F4FA1"/>
</svg>
