<svg width="2" height="9" viewBox="0 0 2 9" fill="none" xmlns="http://www.w3.org/2000/svg">
<path d="M1.99999 1.01503C2.00003 1.14837 1.97421 1.28041 1.92399 1.40362C1.87378 1.52682 1.80016 1.63878 1.70733 1.7331C1.6145 1.82741 1.50428 1.90224 1.38297 1.9533C1.26167 2.00437 1.13164 2.03068 1.00032 2.03072C0.868996 2.03076 0.738952 2.00454 0.617611 1.95355C0.49627 1.90257 0.386007 1.82781 0.293119 1.73356C0.200231 1.6393 0.126537 1.52739 0.0762434 1.40422C0.02595 1.28105 4.22337e-05 1.14902 5.16631e-08 1.01569C-8.51388e-05 0.746396 0.10519 0.488101 0.292665 0.297623C0.48014 0.107145 0.734459 8.65575e-05 0.999675 5.24638e-08C1.26489 -8.64525e-05 1.51928 0.106806 1.70687 0.297161C1.89447 0.487517 1.99991 0.745743 1.99999 1.01503Z" fill="#A5A49A"/>
<path d="M1.00041 5.5164C1.55251 5.5164 2.00008 5.06195 2.00008 4.50136C2.00008 3.94077 1.55251 3.48633 1.00041 3.48633C0.448302 3.48633 0.000732422 3.94077 0.000732422 4.50136C0.000732422 5.06195 0.448302 5.5164 1.00041 5.5164Z" fill="#A5A49A"/>
<path d="M1.00041 8.99979C1.55251 8.99979 2.00008 8.54535 2.00008 7.98476C2.00008 7.42417 1.55251 6.96973 1.00041 6.96973C0.448302 6.96973 0.000732422 7.42417 0.000732422 7.98476C0.000732422 8.54535 0.448302 8.99979 1.00041 8.99979Z" fill="#A5A49A"/>
</svg>
