<svg width="75" height="75" viewBox="0 0 75 75" fill="none" xmlns="http://www.w3.org/2000/svg">
<circle cx="37.5" cy="37.5" r="37.5" fill="white"/>
<path d="M44.115 36.905C43.985 36.8428 43.8537 36.7832 43.7213 36.7262C43.49 32.4587 41.1587 30.0163 37.2437 29.9913H37.1912C34.85 29.9913 32.9025 30.9913 31.7038 32.81L33.8562 34.2863C34.7512 32.9275 36.1562 32.6388 37.1925 32.6388H37.2275C38.5163 32.6462 39.49 33.0212 40.1187 33.7512C40.5775 34.2837 40.8837 35.02 41.035 35.9475C39.8123 35.749 38.5711 35.689 37.335 35.7688C33.6137 35.9838 31.22 38.155 31.3813 41.1712C31.4625 42.7 32.225 44.0175 33.5275 44.8762C34.6275 45.6038 36.0463 45.9587 37.52 45.8787C39.4675 45.7725 40.995 45.0288 42.06 43.6713C42.8687 42.64 43.38 41.3037 43.6063 39.62C44.5338 40.18 45.2213 40.9163 45.6012 41.8013C46.2463 43.3075 46.2838 45.7812 44.2663 47.7975C42.4975 49.565 40.3713 50.3288 37.1587 50.3525C33.595 50.3275 30.8987 49.1838 29.1462 46.9563C27.505 44.8688 26.6575 41.8563 26.6263 38C26.6575 34.1438 27.505 31.13 29.1462 29.0437C30.8987 26.8163 33.5938 25.6737 37.1587 25.6475C40.7475 25.6725 43.49 26.8225 45.31 29.06C46.2025 30.1588 46.875 31.5387 47.3187 33.1475L49.8413 32.475C49.3038 30.4937 48.4575 28.7875 47.3075 27.3713C44.975 24.5 41.5625 23.03 37.1675 23H37.15C32.7625 23.03 29.39 24.5062 27.1237 27.3875C25.1063 29.95 24.0663 33.5175 24.0312 37.99V38.01C24.0663 42.4825 25.1063 46.0487 27.1237 48.6125C29.39 51.4937 32.7625 52.97 37.1488 53H37.1675C41.0675 52.9725 43.8162 51.9525 46.08 49.6887C49.0438 46.7288 48.955 43.0187 47.9775 40.7412C47.2775 39.1075 45.9412 37.7825 44.115 36.905ZM37.3813 43.2337C35.75 43.3263 34.0562 42.5938 33.9712 41.0262C33.9087 39.8637 34.7987 38.565 37.4813 38.4113C37.7888 38.3925 38.09 38.385 38.3863 38.385C39.3612 38.385 40.2712 38.4788 41.1 38.66C40.7913 42.52 38.9788 43.1462 37.3813 43.2337Z" fill="#0F4FA1"/>
</svg>
