<svg width="75" height="75" viewBox="0 0 75 75" fill="none" xmlns="http://www.w3.org/2000/svg">
<circle cx="37.5" cy="37.5" r="37.5" fill="white"/>
<path d="M44.6667 27.7C43.5274 26.3994 42.8995 24.7291 42.9 23H37.75V43.6667C37.7103 44.785 37.2381 45.8444 36.433 46.6216C35.6278 47.3988 34.5524 47.8332 33.4333 47.8333C31.0667 47.8333 29.1 45.9 29.1 43.5C29.1 40.6333 31.8667 38.4833 34.7167 39.3667V34.1C28.9667 33.3333 23.9333 37.8 23.9333 43.5C23.9333 49.05 28.5334 53 33.4167 53C38.65 53 42.9 48.75 42.9 43.5V33.0167C44.9883 34.5164 47.4956 35.3211 50.0667 35.3167V30.1667C50.0667 30.1667 46.9333 30.3167 44.6667 27.7Z" fill="#0F4FA1"/>
</svg>
