<svg width="99" height="64" viewBox="0 0 99 64" fill="none" xmlns="http://www.w3.org/2000/svg">
<rect width="99" height="64" rx="32" fill="white"/>
<path d="M84.13 34.8398C84.27 33.6848 84.375 32.5298 84.375 31.3398C84.375 30.1498 84.27 28.9948 84.13 27.8398H90.045C90.325 28.9598 90.5 30.1323 90.5 31.3398C90.5 32.5473 90.325 33.7198 90.045 34.8398M81.0325 44.5698C82.0825 42.6273 82.8875 40.5273 83.4475 38.3398H88.61C86.9145 41.2593 84.2247 43.4708 81.0325 44.5698ZM80.595 34.8398H72.405C72.23 33.6848 72.125 32.5298 72.125 31.3398C72.125 30.1498 72.23 28.9773 72.405 27.8398H80.595C80.7525 28.9773 80.875 30.1498 80.875 31.3398C80.875 32.5298 80.7525 33.6848 80.595 34.8398ZM76.5 45.2698C75.0475 43.1698 73.875 40.8423 73.1575 38.3398H79.8425C79.125 40.8423 77.9525 43.1698 76.5 45.2698ZM69.5 24.3398H64.39C66.0676 21.4122 68.7557 19.197 71.95 18.1098C70.9 20.0523 70.1125 22.1523 69.5 24.3398ZM64.39 38.3398H69.5C70.1125 40.5273 70.9 42.6273 71.95 44.5698C68.762 43.4714 66.0775 41.2592 64.39 38.3398ZM62.955 34.8398C62.675 33.7198 62.5 32.5473 62.5 31.3398C62.5 30.1323 62.675 28.9598 62.955 27.8398H68.87C68.73 28.9948 68.625 30.1498 68.625 31.3398C68.625 32.5298 68.73 33.6848 68.87 34.8398M76.5 17.3923C77.9525 19.4923 79.125 21.8373 79.8425 24.3398H73.1575C73.875 21.8373 75.0475 19.4923 76.5 17.3923ZM88.61 24.3398H83.4475C82.899 22.1727 82.088 20.0805 81.0325 18.1098C84.2525 19.2123 86.93 21.4348 88.61 24.3398ZM76.5 13.8398C66.8225 13.8398 59 21.7148 59 31.3398C59 35.9811 60.8437 40.4323 64.1256 43.7142C65.7507 45.3392 67.6798 46.6283 69.803 47.5077C71.9262 48.3872 74.2019 48.8398 76.5 48.8398C81.1413 48.8398 85.5925 46.9961 88.8744 43.7142C92.1563 40.4323 94 35.9811 94 31.3398C94 29.0417 93.5474 26.7661 92.6679 24.6429C91.7884 22.5197 90.4994 20.5905 88.8744 18.9655C87.2493 17.3404 85.3202 16.0514 83.197 15.172C81.0738 14.2925 78.7981 13.8398 76.5 13.8398Z" fill="#0F4FA1"/>
<line opacity="0.9" x1="47" y1="17" x2="47" y2="45.0179" stroke="#0F4FA1" stroke-width="3"/>
<path d="M19.25 26.15H10.15V30.05H18.25V33.2H10.15V36.85H19.25V40H6.75V23H19.25V26.15ZM33.8826 23H37.2826V40H34.6576L25.4576 29.325V40H22.0576V23H24.5826L33.8826 33.975V23Z" fill="#0F4FA1"/>
</svg>
