<svg width="75" height="75" viewBox="0 0 75 75" fill="none" xmlns="http://www.w3.org/2000/svg">
<circle cx="37.5" cy="37.5" r="37.5" fill="white"/>
<path d="M43.1931 44.61L30.1261 29.6916C30.0572 29.6129 30.0146 29.5185 30.0031 29.4193C29.9917 29.3201 30.0118 29.2201 30.0611 29.1305C30.1105 29.041 30.1872 28.9655 30.2825 28.9127C30.3778 28.86 30.4878 28.832 30.6001 28.832H33.0801C33.1714 28.8322 33.2615 28.8508 33.3434 28.8865C33.4254 28.9222 33.4971 28.974 33.5531 29.038L46.6201 43.9564C46.689 44.0352 46.7316 44.1295 46.7431 44.2287C46.7546 44.3279 46.7345 44.428 46.6851 44.5175C46.6357 44.6071 46.559 44.6825 46.4637 44.7353C46.3684 44.7881 46.2584 44.816 46.1461 44.816H43.6661C43.5748 44.8159 43.4847 44.7973 43.4028 44.7616C43.3208 44.7259 43.2491 44.674 43.1931 44.61Z" stroke="#0F4FA1" stroke-width="1.5"/>
<path d="M46.3731 28.832L30.3731 44.816" stroke="#0F4FA1" stroke-width="1.5" stroke-linecap="round"/>
</svg>
