<svg width="75" height="75" viewBox="0 0 75 75" fill="none" xmlns="http://www.w3.org/2000/svg">
<circle cx="37.5" cy="37.5" r="37.5" fill="white"/>
<path d="M37.5 27.9443C38.5688 27.9443 39.665 27.9688 40.7275 28.0087L41.9825 28.062L43.1838 28.1253L44.3088 28.193L45.3362 28.264C46.4513 28.3398 47.5006 28.7623 48.2994 29.4573C49.0983 30.1523 49.5955 31.0751 49.7038 32.0635L49.7537 32.5353L49.8475 33.5454C49.935 34.5921 50 35.7332 50 36.8243C50 37.9155 49.935 39.0565 49.8475 40.1033L49.7537 41.1134C49.7375 41.2754 49.7213 41.4319 49.7038 41.5851C49.5955 42.5737 49.098 43.4967 48.2989 44.1917C47.4998 44.8867 46.4503 45.3091 45.335 45.3847L44.31 45.4546L43.185 45.5234L41.9825 45.5867L40.7275 45.64C39.6523 45.6814 38.5762 45.7029 37.5 45.7043C36.4238 45.7029 35.3477 45.6814 34.2725 45.64L33.0175 45.5867L31.8162 45.5234L30.6912 45.4546L29.6637 45.3847C28.5487 45.3089 27.4994 44.8863 26.7006 44.1914C25.9017 43.4964 25.4045 42.5735 25.2962 41.5851L25.2463 41.1134L25.1525 40.1033C25.0569 39.0123 25.0061 37.9186 25 36.8243C25 35.7332 25.065 34.5921 25.1525 33.5454L25.2463 32.5353C25.2625 32.3732 25.2787 32.2167 25.2962 32.0635C25.4044 31.0753 25.9015 30.1526 26.7001 29.4576C27.4987 28.7627 28.5477 28.3401 29.6625 28.264L30.6888 28.193L31.8138 28.1253L33.0163 28.062L34.2712 28.0087C35.3469 27.9672 36.4234 27.9458 37.5 27.9443ZM37.5 30.1643C36.4688 30.1643 35.4075 30.1888 34.375 30.2265L33.1525 30.2787L31.9788 30.3397L30.8763 30.4063L29.8663 30.4762C29.3354 30.5097 28.8351 30.709 28.4539 31.0387C28.0727 31.3685 27.8353 31.8074 27.7838 32.2778C27.6375 33.6198 27.5 35.2903 27.5 36.8243C27.5 38.3584 27.6375 40.0289 27.7838 41.3709C27.89 42.3388 28.755 43.0914 29.8663 43.1724L30.8763 43.2412L31.9788 43.3078L33.1525 43.37L34.375 43.4222C35.4075 43.4599 36.4688 43.4843 37.5 43.4843C38.5312 43.4843 39.5925 43.4599 40.625 43.4222L41.8475 43.37L43.0212 43.309L44.1237 43.2424L45.1338 43.1724C45.6646 43.139 46.1649 42.9397 46.5461 42.61C46.9273 42.2802 47.1647 41.8412 47.2163 41.3709C47.3625 40.0289 47.5 38.3584 47.5 36.8243C47.5 35.2903 47.3625 33.6198 47.2163 32.2778C47.1647 31.8074 46.9273 31.3685 46.5461 31.0387C46.1649 30.709 45.6646 30.5097 45.1338 30.4762L44.1237 30.4074L43.0212 30.3408L41.8475 30.2787L40.625 30.2265C39.5839 30.1867 38.542 30.166 37.5 30.1643ZM35 34.1326C34.9999 34.0241 35.0297 33.9172 35.0867 33.8213C35.1437 33.7253 35.2263 33.6432 35.3272 33.5821C35.4281 33.5209 35.5443 33.4826 35.6657 33.4704C35.7871 33.4582 35.91 33.4725 36.0238 33.5121L36.125 33.5565L41.375 36.2471C41.4795 36.3007 41.568 36.3759 41.6328 36.4663C41.6976 36.5567 41.7369 36.6597 41.7474 36.7664C41.7578 36.8732 41.739 36.9807 41.6927 37.0796C41.6464 37.1786 41.5738 37.2662 41.4813 37.3349L41.375 37.4015L36.125 40.0933C36.0192 40.1477 35.9 40.1783 35.7779 40.1825C35.6557 40.1866 35.5342 40.1642 35.4241 40.1171C35.3139 40.0701 35.2183 39.9998 35.1457 39.9125C35.0731 39.8251 35.0257 39.7233 35.0075 39.616L35 39.5161V34.1326Z" fill="#0F4FA1"/>
</svg>
